<svg
  xmlns="http://www.w3.org/2000/svg"
  viewBox="0 0 24 24"
  width="24"
  height="24"
>
  <path
    d="M12 0C5.37 0 0 5.37 0 12c0 5.3 3.438 9.799 8.205 11.387.6.11.793-.26.793-.577v-2.234c-3.338.724-4.033-1.612-4.033-1.612-.546-1.387-1.333-1.757-1.333-1.757-1.089-.745.083-.729.083-.729 1.205.084 1.839 1.236 1.839 1.236 1.07 1.835 2.809 1.305 3.495.997.11-.774.42-1.305.763-1.604-2.665-.306-5.467-1.333-5.467-5.932 0-1.31.469-2.381 1.236-3.221-.123-.303-.536-1.523.117-3.176 0 0 1.008-.322 3.3 1.23a11.455 11.455 0 013.006-.404c1.02.005 2.045.137 3.006.404 2.29-1.552 3.297-1.23 3.297-1.23.655 1.653.242 2.873.12 3.176.77.84 1.236 1.911 1.236 3.221 0 4.61-2.807 5.623-5.479 5.921.432.372.823 1.1.823 2.222v3.293c0 .32.192.693.8.577A12.015 12.015 0 0024 12c0-6.63-5.37-12-12-12z"
    fill="white"
  />
</svg>
