<svg xmlns="http://www.w3.org/2000/svg" xml:space="preserve" width="2000" height="1500" data-id="lg_rxSWODeEHRVmNCO8zt" data-version="1" viewBox="0 0 2000 1500"><path fill="#111" stroke="transparent" d="M0 0h2000v1500H0z"/><g data-padding="20"><g transform="translate(-992.397 -726.4)scale(1.89449)"><rect width="340.956" height="559.35" x="480.704" y="99.47" fill="none" rx="0" ry="0" transform="translate(400.5 400.17)"/><path fill="#fff" d="M1130.502 914.025v-350.95q0-23.76 29.2-23.76 29.7 0 29.7 23.76v350.95q0 23.76-29.7 23.76-29.2 0-29.2-23.76m-150.48-350.95v350.95q0 23.76-29.7 23.76-29.21 0-29.21-23.76v-350.95q0-23.76 29.21-23.76 29.7 0 29.7 23.76m115.83 167.31q0 17.32-11.88 29.2t-29.21 11.88q-16.83 0-28.71-11.88t-11.88-29.2q0-17.33 11.88-29.21t28.71-11.88q17.33 0 29.21 11.88t11.88 29.21"/></g><path fill="transparent" stroke="transparent" stroke-width="2.013" d="M656.865 187.5h686.27v1125h-686.27z"/></g></svg>